<?xml version="1.0" encoding="UTF-8" standalone="no"?>
<!DOCTYPE svg PUBLIC "-//W3C//DTD SVG 1.1//EN" "http://www.w3.org/Graphics/SVG/1.1/DTD/svg11.dtd">
<svg version="1.1" xmlns="http://www.w3.org/2000/svg" xmlns:xlink="http://www.w3.org/1999/xlink" preserveAspectRatio="xMidYMid meet" viewBox="0 0 640 640" width="640" height="640"><defs><path d="M483.53 48.53C434.2 19.75 380.35 5.36 321.93 5.36C263.53 5.36 209.66 19.75 160.34 48.53C111.01 77.32 71.96 116.37 43.18 165.7C14.39 215.02 0 268.88 0 327.28C0 397.43 20.47 460.51 61.41 516.54C102.35 572.57 155.24 611.34 220.07 632.86C227.61 634.26 233.2 633.28 236.83 629.93C240.47 626.58 242.28 622.38 242.28 617.36C242.28 616.52 242.21 608.98 242.07 594.72C241.93 580.47 241.86 568.03 241.86 557.42C240.89 557.59 233.18 558.92 232.22 559.09C226.07 560.22 218.31 560.69 208.95 560.56C199.59 560.43 189.88 559.45 179.82 557.62C169.76 555.82 160.4 551.63 151.73 545.06C143.07 538.49 136.93 529.9 133.29 519.28C132.87 518.32 129.52 510.6 129.1 509.64C126.31 503.22 121.91 496.08 115.9 488.26C109.89 480.43 103.81 475.13 97.67 472.33C97.37 472.12 95.02 470.44 94.73 470.23C92.78 468.84 90.96 467.15 89.28 465.2C87.61 463.25 86.35 461.29 85.51 459.33C84.67 457.37 85.37 455.76 87.61 454.5C89.85 453.24 93.89 452.63 99.76 452.63C100.6 452.75 107.31 453.76 108.14 453.88C113.73 455 120.65 458.35 128.89 463.94C137.14 469.53 143.91 476.79 149.22 485.73C155.65 497.19 163.4 505.92 172.49 511.93C181.57 517.94 190.72 520.94 199.94 520.94C209.16 520.94 217.13 520.24 223.83 518.85C230.54 517.46 236.83 515.35 242.7 512.56C245.21 493.83 252.06 479.44 263.23 469.38C247.31 467.71 232.99 465.19 220.27 461.84C207.56 458.48 194.42 453.03 180.87 445.48C167.31 437.94 156.06 428.57 147.12 417.4C138.18 406.22 130.84 391.54 125.12 373.38C119.39 355.22 116.53 334.26 116.53 310.51C116.53 276.69 127.57 247.91 149.65 224.15C139.3 198.73 140.28 170.22 152.58 138.65C160.68 136.13 172.7 138.02 188.63 144.3C204.56 150.59 216.22 155.98 223.63 160.44C231.04 164.91 236.97 168.69 241.45 171.76C267.44 164.5 294.27 160.86 321.93 160.86C349.59 160.86 376.42 164.5 402.42 171.76C404.01 170.75 416.76 162.71 418.35 161.7C429.24 155 442.1 148.85 456.91 143.26C471.72 137.67 483.04 136.13 490.87 138.65C503.44 170.23 504.56 198.73 494.22 224.16C516.29 247.91 527.34 276.7 527.34 310.51C527.34 334.26 524.46 355.29 518.74 373.59C513.02 391.9 505.62 406.57 496.54 417.61C487.45 428.65 476.13 437.94 462.58 445.48C449.02 453.03 435.88 458.48 423.17 461.83C410.45 465.19 396.13 467.71 380.21 469.39C394.73 481.96 402 501.8 402 528.91C402 537.75 402 608.5 402 617.35C402 622.37 403.75 626.57 407.24 629.92C410.74 633.26 416.25 634.25 423.8 632.85C488.64 611.33 541.53 572.56 582.46 516.53C623.4 460.5 643.87 397.42 643.87 327.27C643.86 268.88 629.46 215.02 600.68 165.7C571.9 116.37 532.85 77.32 483.53 48.53Z" id="c9atAJCvN"></path></defs><g><g><g><use xlink:href="#c9atAJCvN" opacity="1" fill="#ffffff" fill-opacity="1"></use><g><use xlink:href="#c9atAJCvN" opacity="1" fill-opacity="0" stroke="#000000" stroke-width="1" stroke-opacity="0"></use></g></g></g></g></svg>